<svg xmlns="http://www.w3.org/2000/svg" width="50" height="32" viewBox="0 0 50 32">
<defs>
    <style>
      #main{
        fill: #fff;
      }
      #main, #color{
        fill-rule: evenodd;
      }
      #color{
        fill: #a2c8d4;
      }
    </style>
  </defs>
  <path id="main" class="cls-1" d="M13.583,19.778s-0.018,4.631,2.711,5.358a21.874,21.874,0,0,0,5.2.9s1.647,0.955-.276,1.172l-2.626-.273s-1.209-.272-0.608,1.044c0.93,2.035,3.942,5.382,14.7,2.862,0,0,9.794-3.177,10.488-9.44,0,0,1.413-8.41-2.241-12.384,0,0-3.587-3.56-4.789-4.813,0,0-6.4-3.78-10-4.186C23.528-.277,21.38,2.04,21.38,2.04L17.971,5.2s2.577,3.352,10,1.533A10.547,10.547,0,0,1,23.7,8.575s-0.99.443-8.033,0.1c0,0-3.744-.011-9.474.052,0,0-6.717-.656-6.16,4.34,0,0,.15,2.98,5.744,3.127,0,0,9.2.283,14.849,1.551,0,0,1.336.861-.59,1.087,0,0-2.963-.163-4.933-0.2C15.1,18.637,13.573,18.586,13.583,19.778ZM33.816,16.6A1.664,1.664,0,0,1,32.6,14.926s0.053-1.4,2.514-1.141c0,0,2.7.5,4.833,0.989a0.969,0.969,0,0,1,.961.875s-0.042.548-.973,0.591C39.938,16.24,34.985,16.7,33.816,16.6Zm6.442,3.469c-2.171.806-8,2.135-8,2.135-1.663.285-1.626-1.678-1.626-1.678,0.013-1.318,1.817-1.615,1.817-1.615,2.458-.188,7.357-0.191,7.357-0.191,1.217-.183,1.283.441,1.283,0.441C41.239,19.766,40.259,20.071,40.259,20.071Zm-5.2,6.49c-1.658.875-2.211-.466-2.211-0.466-0.356-1.254,1.176-1.69,1.176-1.69,1.426-.412,5.749-2.075,5.749-2.075,1.114-.436,1.287-0.01,1.287-0.01,0.462,0.673-.477,1.131-0.477,1.131A43.431,43.431,0,0,1,35.059,26.561Zm8.792-2.121s6.036,1,6.162-7.51c0,0-.925-7.625-6.523-7.121C43.49,9.808,47.641,14.987,43.85,24.439Z"/>
  <path id="color" class="cls-2" d="M20.707,30.99c-1.325-1.264.093-1.1,0.093-1.1,2.94,0.573,8.372-1.051,8.372-1.051A27.013,27.013,0,0,0,32.259,27.6c0.325,0.492,1.113,1.235,2.656.407a46.1,46.1,0,0,0,5.947-3.618,2.146,2.146,0,0,0,.622-1.543,0.623,0.623,0,0,0-.567-0.654h0a0.489,0.489,0,0,0-.067-0.027h0a0.743,0.743,0,0,0-.188-0.031H40.643c-0.031,0-.063,0-0.1,0l-0.044,0-0.093.011-0.058.009-0.1.021L40.18,22.2c-0.04.01-.083,0.023-0.127,0.036l-0.065.02c-0.068.022-.139,0.047-0.216,0.077,0,0-.314.121-0.8,0.3h0a14.766,14.766,0,0,0,2.316-3.562c1.687-3.735.2-8.175-.881-10.576l0.524,0.521C44.585,12.99,43.173,21.4,43.173,21.4a7.337,7.337,0,0,1-1.564,3.666,18.214,18.214,0,0,1-9.773,6.28S24.444,32.755,20.707,30.99Zm0.787-4.954s1.11,0.646.435,1c0.875-.092,2.042-0.29,3.215-0.449,0,0,2.2-.278,1.954-0.855a6.482,6.482,0,0,0-2.889-.759,62.9,62.9,0,0,1-6.682-.73s-2.292-.6-1.755.7q0.117,0.061.242,0.11l0.012,0a2.494,2.494,0,0,0,.269.088A21.874,21.874,0,0,0,21.494,26.035ZM2.309,15.292C0.3,12.558,5.292,13.815,5.292,13.815s9.623,0.5,14.415,1.393c0,0,13.16,2.623,1.724,3.553,0,0-.363,0-0.961-0.006,0.849-.2.62-0.595,0.38-0.826a1.269,1.269,0,0,0-.227-0.184c-5.649-1.268-14.849-1.551-14.849-1.551S3.359,16.208,2.309,15.292Zm19.42-6.512H21.713l-0.338.01h0l0.016,0.033C25.758,9,31.688,6.4,31.688,6.4c1.371-.609-0.264-0.925-0.264-0.925A16.539,16.539,0,0,0,26.171,3.92a1.746,1.746,0,0,0-1.342.5C23.164,6.57,19.3,6.334,18.382,5.994c0,0,3.427,2.506,8.991.874A23.12,23.12,0,0,1,21.729,8.781Zm23.7,8.7h0a2.21,2.21,0,0,0,2.344,1.184,2.528,2.528,0,0,0,2.063-2.676h0l0.018,0.081c0.01,0.046.02,0.093,0.029,0.136s0.013,0.063.019,0.094,0.014,0.068.02,0.1l0.016,0.086,0.015,0.081,0.013,0.073L49.98,16.71l0.009,0.056L50,16.818,50,16.856l0.005,0.038,0,0.018,0,0.018c-0.127,8.513-6.162,7.51-6.162,7.51A27.632,27.632,0,0,0,45.433,17.485Z"/>
</svg>
