<svg xmlns="http://www.w3.org/2000/svg" width="46" height="52" viewBox="0 0 46 52">
  <metadata><?xpacket begin="﻿" id="W5M0MpCehiHzreSzNTczkc9d"?>
<x:xmpmeta xmlns:x="adobe:ns:meta/" x:xmptk="Adobe XMP Core 5.6-c138 79.159824, 2016/09/14-01:09:01        ">
   <rdf:RDF xmlns:rdf="http://www.w3.org/1999/02/22-rdf-syntax-ns#">
      <rdf:Description rdf:about=""/>
   </rdf:RDF>
</x:xmpmeta>
                                                                                                    
                                                                                                    
                                                                                                    
                                                                                                    
                                                                                                    
                                                                                                    
                                                                                                    
                                                                                                    
                                                                                                    
                                                                                                    
                                                                                                    
                                                                                                    
                                                                                                    
                                                                                                    
                                                                                                    
                                                                                                    
                                                                                                    
                                                                                                    
                                                                                                    
                                                                                                    
                           
<?xpacket end="w"?></metadata>
<defs>
    <style>
      .cls-1 {
        fill: #fff;
      }

      .cls-1, .cls-2 {
        fill-rule: evenodd;
      }

      .cls-2 {
        fill: #fe445e;
      }
    </style>
  </defs>
  <path id="Layer_1" data-name="Layer 1" class="cls-1" d="M2.715,31.613a7.163,7.163,0,0,1,0-11.226L27.675,0.824A3.879,3.879,0,0,1,31.815.4a4.02,4.02,0,0,1,2.2,3.6v7.534a3.068,3.068,0,0,1-1.167,2.415L21.536,22.82a4.059,4.059,0,0,0,0,6.36l11.322,8.876a3.039,3.039,0,0,1,1.156,2.393v7.541a4.023,4.023,0,0,1-2.2,3.6,3.882,3.882,0,0,1-4.145-.42Z"/>
  <path class="cls-2" d="M46.008,19.1a3.127,3.127,0,0,0-1.649-2.79,2.819,2.819,0,0,0-3.1.334l-9.516,7.783a2.074,2.074,0,0,0,0,3.17l9.488,7.76a2.836,2.836,0,0,0,3.118.336,3.145,3.145,0,0,0,1.659-2.806V19.1Z"/>
</svg>
