<svg id="iconStats-king" xmlns="http://www.w3.org/2000/svg" width="42" height="32" viewBox="0 0 42 32">
<defs>
    <style>
      #main{
        fill: #fff;
		-webkit-transition: 200ms all;
		transition: 200ms all;
      }
      .cls-1, .cls-2, .cls-3, .cls-4 {
        fill-rule: evenodd;
      }
      #red{
        fill: #fa4c6d;
      }
      #bottom{
        fill: #20d7e7;
      }
      #back{
        fill: #2d899d;
      }
    </style>
  </defs>
  <path id="main" class="cls-1" d="M42,6.859L40.894,21.719S38.131,25.149,21,25.149,1.1,21.719,1.1,21.719L0,6.859l8.842,8v2.286L21,0,33.158,17.147V14.861ZM21,10c-2.214,0-4.009,3.22-4.009,5.5s1.795,5.5,4.009,5.5,4.009-3.22,4.009-5.5S23.213,10,21,10Z"/>
  <path id="red" class="cls-2" d="M21,10.86c-1.291,0-2.338,2.748-2.338,4.287a2.349,2.349,0,1,0,4.677,0C23.338,13.607,22.291,10.86,21,10.86Z"/>
  <path id="bottom" class="cls-3" d="M21,28.578s15.915-.008,19.419-3.921l0.475,0.492v1.143l-1.105,2.286-1.105,1.143C31.421,32.334,21,32.007,21,32.007s-10.421.327-17.684-2.286L2.21,28.578,1.1,26.292V25.149l0.476-.492C5.085,28.57,21,28.578,21,28.578Z"/>
  <path id="back" class="cls-4" d="M36.473,8.907L34.263,4.715,29.842,7.573,32.6,12.717Zm-30.948,0L7.737,4.715l4.421,2.858L9.394,12.717Z"/>
</svg>
