<?xml version="1.0" encoding="UTF-8" standalone="no"?><!DOCTYPE svg PUBLIC "-//W3C//DTD SVG 1.1//EN" "http://www.w3.org/Graphics/SVG/1.1/DTD/svg11.dtd"><svg width="100%" height="100%" viewBox="0 0 46 52" version="1.1" xmlns="http://www.w3.org/2000/svg" xmlns:xlink="http://www.w3.org/1999/xlink" xml:space="preserve" xmlns:serif="http://www.serif.com/" style="fill-rule:evenodd;clip-rule:evenodd;stroke-linejoin:round;stroke-miterlimit:1.41421;"><path id="Layer_1" d="M2.715,31.613c-1.713,-1.358 -2.713,-3.427 -2.713,-5.613c0,-2.186 1,-4.255 2.713,-5.613l24.96,-19.563c1.179,-0.931 2.797,-1.096 4.14,-0.424c1.353,0.687 2.206,2.083 2.2,3.6l0,7.534c0.002,0.941 -0.429,1.832 -1.167,2.415l-11.312,8.871c-0.97,0.769 -1.536,1.942 -1.536,3.18c0,1.238 0.566,2.411 1.536,3.18l11.322,8.876c0.732,0.578 1.158,1.461 1.156,2.393l0,7.541c0.005,1.517 -0.848,2.913 -2.2,3.6c-1.344,0.675 -2.964,0.511 -4.145,-0.42l-24.954,-19.557Zm43.293,-12.513c0.013,-1.163 -0.624,-2.24 -1.649,-2.79c-1.004,-0.521 -2.23,-0.389 -3.1,0.334l-9.516,7.783c-0.467,0.394 -0.736,0.974 -0.736,1.585c0,0.611 0.269,1.191 0.736,1.585l9.488,7.76c0.876,0.727 2.108,0.86 3.118,0.336c1.031,-0.553 1.672,-1.636 1.659,-2.806l0,-13.787Z" style="fill:#fff;"/></svg>