<svg xmlns="http://www.w3.org/2000/svg" width="23" height="23" viewBox="0 0 23 23">
  <metadata><?xpacket begin="﻿" id="W5M0MpCehiHzreSzNTczkc9d"?>
<x:xmpmeta xmlns:x="adobe:ns:meta/" x:xmptk="Adobe XMP Core 5.6-c138 79.159824, 2016/09/14-01:09:01        ">
   <rdf:RDF xmlns:rdf="http://www.w3.org/1999/02/22-rdf-syntax-ns#">
      <rdf:Description rdf:about=""/>
   </rdf:RDF>
</x:xmpmeta>
                                                                                                    
                                                                                                    
                                                                                                    
                                                                                                    
                                                                                                    
                                                                                                    
                                                                                                    
                                                                                                    
                                                                                                    
                                                                                                    
                                                                                                    
                                                                                                    
                                                                                                    
                                                                                                    
                                                                                                    
                                                                                                    
                                                                                                    
                                                                                                    
                                                                                                    
                                                                                                    
                           
<?xpacket end="w"?></metadata>
<defs>
    <style>
      .cls-1 {
        fill: #fff;
        fill-rule: evenodd;
      }
    </style>
  </defs>
  <path class="cls-1" d="M14.444,16.225s-0.4,0-.217-0.7c0,0,.614-2.657,3.822-5.776,0,0,4.058-4.083,4.648-6.026,0,0,1.079-2.291-.892-3.589,0,0-1.087-.663-2.527,1.214,0,0-4.372,4.615-6.948,6.881,0,0-.615-0.165.018-0.661a8.517,8.517,0,0,1,2.02-2.882S11.882,2.073,10.58,3.418A8.652,8.652,0,0,0,8.516,5.181S7.665,4.64,8.005,4.391A2.345,2.345,0,0,1,9.444,3.083S5.895-.147,2,8.218c0,0-2.369,5.782.094,8.725,0,0,3.123,4.17,6.254,4.177,0,0,3.262-.2,3.959-0.3a15.224,15.224,0,0,0,3.187-2,13.021,13.021,0,0,0,2.306-2.71l0.207-2.87S16.5,12.088,14.444,16.225ZM2.993,15.008a28.384,28.384,0,0,1,1.3-3.482,0.484,0.484,0,0,0-.261-0.644,0.639,0.639,0,0,0-1.075.209,27.948,27.948,0,0,0-.762,3.814s-0.16.619,0.31,0.691C2.5,15.6,2.89,15.877,2.993,15.008Zm2.589,2.63A23.6,23.6,0,0,1,7.4,14.469a2.369,2.369,0,0,1,1.008.4,0.533,0.533,0,0,1-.156.72s-1.529,1.948-2.035,2.665c0,0-.258.524-0.644,0.243A0.575,0.575,0,0,1,5.583,17.638Zm-1.029-1.1s1.621-3.071,2.481-4.267a0.6,0.6,0,0,0,.01-0.863,0.738,0.738,0,0,0-1.222.066s-1.551,3.381-2.032,4.706a0.559,0.559,0,0,0,.079.756S4.187,17.243,4.554,16.535Zm2.47,5.415S3.177,21.663.511,15.975c0,0-1.956,1.239,1.7,4.868C2.215,20.843,5.933,24.86,7.024,21.95Z"/>
</svg>
