<svg xmlns="http://www.w3.org/2000/svg" width="23" height="23" viewBox="0 0 23 23">
  <metadata><?xpacket begin="﻿" id="W5M0MpCehiHzreSzNTczkc9d"?>
<x:xmpmeta xmlns:x="adobe:ns:meta/" x:xmptk="Adobe XMP Core 5.6-c138 79.159824, 2016/09/14-01:09:01        ">
   <rdf:RDF xmlns:rdf="http://www.w3.org/1999/02/22-rdf-syntax-ns#">
      <rdf:Description rdf:about=""/>
   </rdf:RDF>
</x:xmpmeta>
                                                                                                    
                                                                                                    
                                                                                                    
                                                                                                    
                                                                                                    
                                                                                                    
                                                                                                    
                                                                                                    
                                                                                                    
                                                                                                    
                                                                                                    
                                                                                                    
                                                                                                    
                                                                                                    
                                                                                                    
                                                                                                    
                                                                                                    
                                                                                                    
                                                                                                    
                                                                                                    
                           
<?xpacket end="w"?></metadata>
<defs>
    <style>
      .cls-1 {
        fill: #fff;
      }

      .cls-1, .cls-2 {
        fill-rule: evenodd;
      }

      .cls-2 {
        fill: #20d7e7;
      }
    </style>
  </defs>
  <path id="LMB_copy" data-name="LMB copy" class="cls-1" d="M2.628,20.344a9,9,0,0,1,0-12.745l3.545-3.54L9.718,7.6,8.3,9.015a4.008,4.008,0,0,0,5.672,5.665l1.418-1.416,3.545,3.54-3.545,3.54A9.033,9.033,0,0,1,2.628,20.344ZM16.1,9.723l-3.545,3.54a2,2,0,1,1-2.836-2.832l3.545-3.54A2,2,0,0,1,16.1,9.723ZM11.845,5.475l-0.709.708L7.591,2.643A9.032,9.032,0,0,1,19.6,1.976L16.708,4.867A4.006,4.006,0,0,0,11.845,5.475Z"/>
  <path id="Rounded_Rectangle_88_copy" data-name="Rounded Rectangle 88 copy" class="cls-2" d="M17.518,11.139a3.992,3.992,0,0,0,.609-4.856l2.895-2.891a9,9,0,0,1-.667,12l-3.545-3.54Z"/>
</svg>
