<?xml version="1.0" encoding="UTF-8" standalone="no"?><!DOCTYPE svg PUBLIC "-//W3C//DTD SVG 1.1//EN" "http://www.w3.org/Graphics/SVG/1.1/DTD/svg11.dtd"><svg width="100%" height="100%" viewBox="0 0 36 36" version="1.1" xmlns="http://www.w3.org/2000/svg" xmlns:xlink="http://www.w3.org/1999/xlink" xml:space="preserve" xmlns:serif="http://www.serif.com/" style="fill-rule:evenodd;clip-rule:evenodd;stroke-linejoin:round;stroke-miterlimit:1.41421;"><g id="icon_starcoinTilt"><path id="Rectangle-6" serif:id="Rectangle 6" d="M22.985,0.303l9.015,8.404l2,10.285l-3,9.541l-9.038,7.457l-6.738,0l-9.364,-3.025l-5.756,-13.731l5.449,-14.968l11.682,-2.77l5.75,-1.193Z" style="fill:#c36721;fill-rule:nonzero;"/><path id="Shape-158" serif:id="Shape 158" d="M5.521,4.19l5.659,1.953l-5.32,13.079l-5.756,-0.044l5.417,-14.988Z" style="fill:#eba835;"/><path id="Shape-160" serif:id="Shape 160" d="M0.3,19.222l6.109,-3.464l-0.549,3.464l0.412,1.12l4.471,11.304l-5.74,-11.534l-4.703,-0.89Z" style="fill:#fff77d;"/><path id="ring-copy-2" serif:id="ring copy 2" d="M22.57,2.065c6.817,0.973 12.112,8.396 11.82,16.028c-0.286,7.479 -4.135,15.307 -12.5,15.067c-8.068,-0.231 -15.236,-6.167 -15.203,-15.256c0.033,-9.317 8.269,-16.925 15.883,-15.839Z" style="fill:#581e02;"/><path id="color" d="M19.865,30.348l2.1,0.684l2.07,-0.944c0,0 -1.12,-0.744 -1.738,-1.154c-0.236,-0.156 -0.547,-0.14 -0.765,0.04c-0.587,0.484 -1.667,1.374 -1.667,1.374Zm-6.299,-8.427c0.261,0.275 0.38,0.655 0.322,1.03c-0.201,1.281 -0.655,4.193 -0.655,4.193c-0.077,0.112 -2.934,-8.659 -2.934,-8.659c0,0 2.305,2.425 3.267,3.436Zm17.708,-2.985l-1.797,5.905c0,0 -0.319,0.585 -0.508,-0.062l-0.173,-3.394l2.478,-2.449Zm-4.197,-7.229c0,0 -0.503,-0.108 -0.639,-0.521l-1.146,-3.621l4.183,2.501l0.748,2.484l-3.146,-0.843Zm-8.292,-4.952l-1.111,3.394c-0.178,0.416 -0.767,0.44 -0.767,0.44l-4.508,0.639l1.157,-3.284l5.229,-1.189Z" style="fill:#b8001e;"/><path id="edge" d="M22.933,0.019l0.052,-0.019l9.78,6.947l3.239,11.866l-4.079,11.325l-9.856,5.67l-11.333,-4.194l-5.35,-13.558l4.91,-12.199l-4.705,-1.606l11.909,-3.948l5.431,-0.303l0.002,0.019Zm-0.454,26.964c-0.185,-0.118 -0.44,-0.154 -0.44,-0.154c0,0 -0.257,0.056 -0.451,0.19l-5.595,4.995l3.252,-0.913l2.651,1.061l3.623,-1.991l1.295,0.861l1.705,0.163l-6.04,-4.212Zm-12.126,-11.045c0,0 -0.021,-0.012 -0.055,-0.031l-0.017,0.051l-2.217,-2.095l1.526,4.232c0,0 2.324,7.001 3.412,10.509l1.61,0.602c-0.027,-0.138 0.678,-7.639 0.678,-7.639c0,0 0.092,-0.394 -0.102,-0.613l-4.835,-5.016Zm23.783,-0.361l-5.655,5.449c-0.167,0.197 -0.107,0.554 -0.107,0.554c0,0 0.293,6.311 0.438,6.78l1.075,-0.588l2.648,-8.388l1.601,-3.807Zm-3.624,-6.533l-4.692,-3.001l-2.453,-3.471l2.834,9.277c0.12,0.357 0.556,0.448 0.556,0.448l4.824,1.242l-1.069,-4.495Zm-8.944,-6.535l-2.552,2.685l-5.792,2.063l-1.673,4.945c0.006,-0.001 0.012,-0.003 0.017,-0.003l6.111,-0.579c0,0 0.501,-0.024 0.653,-0.383l3.236,-8.728Z" style="fill:#fff77d;"/><path id="shade" d="M31.573,13.557l-1.061,-4.513l-4.692,-3.001l-2.419,-3.406l-0.097,-0.27l8.497,5.548l0.993,-0.976l1.999,7.445l-3.22,-0.827Zm-8.49,-11.231l2.467,10.964c0.121,0.356 0.561,0.442 0.561,0.442l8.003,1.864l-5.633,5.43c-0.167,0.197 -0.107,0.554 -0.107,0.554l0.496,8.333c0,0.003 -0.001,0.004 -0.002,0.006l1.887,-1.079l2.407,-8.555l0.916,-4.005l0.049,-0.68l0.685,-1.107l1.192,4.322l-4.079,11.323l-9.856,5.67l-11.333,-4.194l-4.876,-12.355l2.224,-5.194l0.141,0.268l0.727,5.665l2.848,9.949l1.977,0.806c-0.111,-0.204 1.513,-9.186 1.513,-9.186c0,0 0.092,-0.394 -0.102,-0.613l-6.654,-6.766l9.806,-0.945c0,0 0.495,-0.03 0.646,-0.387l3.129,-10.56l0.968,0.03Zm-0.604,24.657c-0.185,-0.118 -0.44,-0.154 -0.44,-0.154c0,0 -0.257,0.056 -0.451,0.19l-4.994,4.827l5.262,2.084l4.923,-2.898l1.74,0.163l-6.04,-4.212Zm-11.334,-20.895l10.43,-3.587l-2.583,2.695l-2.804,0.947l-2.964,1.114l-1.747,4.916l-2.931,0.393l2.599,-6.478Z" style="fill:#ffbf43;"/><path id="starOut" d="M21.87,10.406c0.118,-0.24 0.37,-0.385 0.637,-0.365c0.267,0.019 0.495,0.198 0.577,0.453c0.447,1.389 1.064,3.306 1.274,3.958c0.046,0.144 0.155,0.259 0.296,0.312c0.662,0.248 2.633,0.987 3.735,1.4c0.165,0.062 0.287,0.205 0.322,0.378c0.035,0.173 -0.022,0.352 -0.15,0.474c-0.809,0.768 -2.222,2.109 -2.793,2.651c-0.154,0.146 -0.217,0.365 -0.164,0.57c0.189,0.735 0.652,2.538 1.011,3.931c0.081,0.315 -0.033,0.648 -0.289,0.848c-0.257,0.2 -0.607,0.228 -0.893,0.073c-1.127,-0.612 -2.518,-1.369 -3.108,-1.69c-0.177,-0.096 -0.392,-0.094 -0.568,0.007c-0.63,0.364 -2.199,1.267 -3.46,1.993c-0.293,0.168 -0.66,0.142 -0.925,-0.068c-0.265,-0.21 -0.376,-0.561 -0.279,-0.885c0.47,-1.574 1.081,-3.622 1.291,-4.327c0.046,-0.155 0.005,-0.323 -0.109,-0.438c-0.534,-0.542 -2.113,-2.143 -3.137,-3.182c-0.179,-0.181 -0.242,-0.447 -0.163,-0.69c0.079,-0.242 0.285,-0.42 0.537,-0.462c1.316,-0.22 3.261,-0.546 3.993,-0.668c0.183,-0.031 0.341,-0.148 0.423,-0.315c0.341,-0.695 1.278,-2.604 1.942,-3.958Z" style="fill:#2f5674;"/><path id="starIn" d="M21.312,12.114c0.06,-0.136 0.199,-0.222 0.348,-0.216c0.15,0.006 0.28,0.103 0.33,0.244c0.378,1.082 1.001,2.861 1.213,3.469c0.047,0.134 0.151,0.24 0.285,0.29c0.593,0.221 2.293,0.854 3.093,1.152c0.09,0.034 0.156,0.112 0.173,0.206c0.018,0.095 -0.016,0.191 -0.088,0.255c-0.605,0.532 -1.859,1.635 -2.454,2.158c-0.2,0.176 -0.277,0.453 -0.196,0.706c0.262,0.829 0.853,2.697 1.184,3.743c0.039,0.121 -0.001,0.252 -0.099,0.332c-0.099,0.08 -0.236,0.091 -0.346,0.029c-0.942,-0.532 -2.604,-1.47 -3.297,-1.861c-0.194,-0.11 -0.433,-0.101 -0.619,0.023c-0.633,0.42 -2.113,1.403 -3.002,1.994c-0.107,0.071 -0.246,0.067 -0.349,-0.01c-0.102,-0.077 -0.144,-0.21 -0.106,-0.332c0.382,-1.203 1.078,-3.396 1.339,-4.221c0.063,-0.199 0.008,-0.417 -0.143,-0.561c-0.544,-0.519 -1.858,-1.772 -2.609,-2.488c-0.105,-0.1 -0.144,-0.25 -0.101,-0.388c0.042,-0.138 0.159,-0.24 0.301,-0.264c0.948,-0.159 2.535,-0.426 3.202,-0.538c0.194,-0.032 0.359,-0.16 0.439,-0.34c0.297,-0.67 1.045,-2.354 1.502,-3.382Z" style="fill:#44ebd2;"/></g></svg>