<svg id="logoIcon" xmlns="http://www.w3.org/2000/svg" width="38" height="38" viewBox="0 0 38 38">
<defs>
    <style>
      #red{
        fill: #e64670;
      }
      #white{
        fill: #fff;
      }
    </style>
  </defs>
  <path id="red" class="cls-1" d="M33.23,29.9c-0.394.313-.6,0.132-0.7-0.061l-0.946-5.591a1.156,1.156,0,0,1,.193-0.973l4.586-4.387c0.431-.245.536,0.182,0.561,0.352A18.148,18.148,0,0,1,33.23,29.9ZM33.4,9.269l-5.69-.88a1.574,1.574,0,0,1-1.161-.681L23.863,2.059a0.353,0.353,0,0,1,.347-0.508,17.97,17.97,0,0,1,9.554,7.06l0,0C34.031,9.094,33.666,9.231,33.4,9.269ZM24.114,36.244l0.014,0a17.806,17.806,0,0,1-10.238,0l0.03-.006s-0.65-.259-0.233-0.673l4.448-2.341a1.473,1.473,0,0,1,.871-0.3,1.078,1.078,0,0,1,.871.3l4.463,2.349C24.768,35.988,24.114,36.244,24.114,36.244ZM11.458,7.707a1.573,1.573,0,0,1-1.161.681l-5.69.88C4.344,9.231,3.98,9.094,4.251,8.609l0,0a17.972,17.972,0,0,1,9.5-7.043,0.367,0.367,0,0,1,.446.4ZM6.427,24.251L5.46,29.967c-0.112.151-.308,0.245-0.636-0.006A18.147,18.147,0,0,1,1.089,19.329c0.01-.11.092-0.743,0.656-0.347l4.489,4.295A1.156,1.156,0,0,1,6.427,24.251Z"/>
  <path id="white" class="cls-2" d="M36.211,16.747L29.5,22.827a0.912,0.912,0,0,0-.158.78L30.368,30a6.871,6.871,0,0,1,.316,2.728,2.627,2.627,0,0,1-2.526,2.261A4.312,4.312,0,0,1,26.5,34.6l-6.789-3.664A2.426,2.426,0,0,0,19,30.7a2.425,2.425,0,0,0-.71.234L11.5,34.6a4.312,4.312,0,0,1-1.658.39,2.627,2.627,0,0,1-2.526-2.261A6.871,6.871,0,0,1,7.631,30l1.026-6.392a0.912,0.912,0,0,0-.158-0.78l-6.711-6.08A3.006,3.006,0,0,1,1,14.72a2.7,2.7,0,0,1,.553-1.637,2.835,2.835,0,0,1,1.816-.935L11.895,10.9a1.291,1.291,0,0,0,.947-0.546l3.553-7.484A3.061,3.061,0,0,1,19,1a3.061,3.061,0,0,1,2.605,1.871l3.553,7.484a1.29,1.29,0,0,0,.947.546l8.526,1.247a2.834,2.834,0,0,1,1.816.935A2.7,2.7,0,0,1,37,14.72,3.007,3.007,0,0,1,36.211,16.747ZM16.922,16.06A2.582,2.582,0,0,0,14.637,13.5a2.656,2.656,0,0,0-2.856,2.431c-0.006.026-.011,0.053-0.017,0.081a25.2,25.2,0,0,1,2.712,3.456s0.715,0.964-.155,1.258A8.879,8.879,0,0,1,11.5,21.3a25.215,25.215,0,0,0,.425,4.983c0.143,1.743,2.713,1.743,2.713,1.743a2.141,2.141,0,0,0,2.285-2.451s-0.143-1.885-.143-4.647C16.779,18.371,16.922,16.06,16.922,16.06Zm9.578,4.3c-0.081-.925-0.073-3.473-0.286-4.423A2.656,2.656,0,0,0,23.359,13.5a2.57,2.57,0,0,0-2.268,2.376,25.366,25.366,0,0,1,2.84,3.593s0.715,0.964-.155,1.258a8.564,8.564,0,0,1-2.56.545c-0.011,2.637-.142,4.294-0.142,4.294a2.141,2.141,0,0,0,2.285,2.451s2.57,0,2.713-1.743a27.47,27.47,0,0,0,.428-5.491V20.359Z"/>
</svg>
